<mxfile host="app.diagrams.net" agent="Mozilla/5.0 (Windows NT 10.0; Win64; x64) AppleWebKit/537.36 (KHTML, like Gecko) Chrome/131.0.0.0 Safari/537.36" version="25.0.3">
  <diagram name="Trang-1" id="GaFK5rTBCWjAYldnQ5zH">
    <mxGraphModel dx="1434" dy="746" grid="1" gridSize="10" guides="1" tooltips="1" connect="1" arrows="1" fold="1" page="1" pageScale="1" pageWidth="827" pageHeight="1169" math="0" shadow="0">
      <root>
        <mxCell id="0" />
        <mxCell id="1" parent="0" />
        <mxCell id="1lSeIit17PZJLVwpunrd-3" value="" style="edgeStyle=orthogonalEdgeStyle;rounded=0;orthogonalLoop=1;jettySize=auto;html=1;" edge="1" parent="1" source="1lSeIit17PZJLVwpunrd-1" target="1lSeIit17PZJLVwpunrd-2">
          <mxGeometry relative="1" as="geometry" />
        </mxCell>
        <mxCell id="1lSeIit17PZJLVwpunrd-1" value="START" style="strokeWidth=2;html=1;shape=mxgraph.flowchart.start_1;whiteSpace=wrap;" vertex="1" parent="1">
          <mxGeometry x="350" y="20" width="100" height="60" as="geometry" />
        </mxCell>
        <mxCell id="1lSeIit17PZJLVwpunrd-5" value="" style="edgeStyle=orthogonalEdgeStyle;rounded=0;orthogonalLoop=1;jettySize=auto;html=1;" edge="1" parent="1" source="1lSeIit17PZJLVwpunrd-2" target="1lSeIit17PZJLVwpunrd-4">
          <mxGeometry relative="1" as="geometry" />
        </mxCell>
        <mxCell id="1lSeIit17PZJLVwpunrd-2" value="score" style="whiteSpace=wrap;html=1;strokeWidth=2;" vertex="1" parent="1">
          <mxGeometry x="340" y="160" width="120" height="60" as="geometry" />
        </mxCell>
        <mxCell id="1lSeIit17PZJLVwpunrd-7" value="" style="edgeStyle=orthogonalEdgeStyle;rounded=0;orthogonalLoop=1;jettySize=auto;html=1;" edge="1" parent="1" source="1lSeIit17PZJLVwpunrd-4" target="1lSeIit17PZJLVwpunrd-6">
          <mxGeometry relative="1" as="geometry" />
        </mxCell>
        <mxCell id="1lSeIit17PZJLVwpunrd-13" style="edgeStyle=orthogonalEdgeStyle;rounded=0;orthogonalLoop=1;jettySize=auto;html=1;" edge="1" parent="1" source="1lSeIit17PZJLVwpunrd-4">
          <mxGeometry relative="1" as="geometry">
            <mxPoint x="480" y="570" as="targetPoint" />
          </mxGeometry>
        </mxCell>
        <mxCell id="1lSeIit17PZJLVwpunrd-16" value="đúng" style="edgeLabel;html=1;align=center;verticalAlign=middle;resizable=0;points=[];" vertex="1" connectable="0" parent="1lSeIit17PZJLVwpunrd-13">
          <mxGeometry x="0.0787" y="2" relative="1" as="geometry">
            <mxPoint y="-1" as="offset" />
          </mxGeometry>
        </mxCell>
        <mxCell id="1lSeIit17PZJLVwpunrd-4" value="score &amp;gt; 5" style="rhombus;whiteSpace=wrap;html=1;strokeWidth=2;" vertex="1" parent="1">
          <mxGeometry x="340" y="290" width="120" height="80" as="geometry" />
        </mxCell>
        <mxCell id="1lSeIit17PZJLVwpunrd-9" value="" style="edgeStyle=orthogonalEdgeStyle;rounded=0;orthogonalLoop=1;jettySize=auto;html=1;" edge="1" parent="1" source="1lSeIit17PZJLVwpunrd-6" target="1lSeIit17PZJLVwpunrd-8">
          <mxGeometry relative="1" as="geometry" />
        </mxCell>
        <mxCell id="1lSeIit17PZJLVwpunrd-14" style="edgeStyle=orthogonalEdgeStyle;rounded=0;orthogonalLoop=1;jettySize=auto;html=1;exitX=1;exitY=0.5;exitDx=0;exitDy=0;" edge="1" parent="1" source="1lSeIit17PZJLVwpunrd-6">
          <mxGeometry relative="1" as="geometry">
            <mxPoint x="480" y="570" as="targetPoint" />
          </mxGeometry>
        </mxCell>
        <mxCell id="1lSeIit17PZJLVwpunrd-6" value="đạt" style="whiteSpace=wrap;html=1;strokeWidth=2;" vertex="1" parent="1">
          <mxGeometry x="340" y="540" width="120" height="60" as="geometry" />
        </mxCell>
        <mxCell id="1lSeIit17PZJLVwpunrd-8" value="ko đạt" style="whiteSpace=wrap;html=1;strokeWidth=2;" vertex="1" parent="1">
          <mxGeometry x="340" y="670" width="120" height="60" as="geometry" />
        </mxCell>
        <mxCell id="1lSeIit17PZJLVwpunrd-10" value="" style="strokeWidth=2;html=1;shape=mxgraph.flowchart.start_1;whiteSpace=wrap;" vertex="1" parent="1">
          <mxGeometry x="350" y="800" width="100" height="60" as="geometry" />
        </mxCell>
        <mxCell id="1lSeIit17PZJLVwpunrd-11" style="edgeStyle=orthogonalEdgeStyle;rounded=0;orthogonalLoop=1;jettySize=auto;html=1;entryX=0.5;entryY=0;entryDx=0;entryDy=0;entryPerimeter=0;" edge="1" parent="1" source="1lSeIit17PZJLVwpunrd-8" target="1lSeIit17PZJLVwpunrd-10">
          <mxGeometry relative="1" as="geometry" />
        </mxCell>
        <mxCell id="1lSeIit17PZJLVwpunrd-15" style="edgeStyle=orthogonalEdgeStyle;rounded=0;orthogonalLoop=1;jettySize=auto;html=1;exitX=0;exitY=0.5;exitDx=0;exitDy=0;entryX=0;entryY=0.75;entryDx=0;entryDy=0;" edge="1" parent="1" source="1lSeIit17PZJLVwpunrd-12" target="1lSeIit17PZJLVwpunrd-8">
          <mxGeometry relative="1" as="geometry" />
        </mxCell>
        <mxCell id="1lSeIit17PZJLVwpunrd-17" value="sai" style="edgeLabel;html=1;align=center;verticalAlign=middle;resizable=0;points=[];" vertex="1" connectable="0" parent="1lSeIit17PZJLVwpunrd-15">
          <mxGeometry x="-0.0095" y="-3" relative="1" as="geometry">
            <mxPoint as="offset" />
          </mxGeometry>
        </mxCell>
        <mxCell id="1lSeIit17PZJLVwpunrd-12" value="score &amp;lt; 5" style="rhombus;whiteSpace=wrap;html=1;strokeWidth=2;" vertex="1" parent="1">
          <mxGeometry x="340" y="400" width="120" height="80" as="geometry" />
        </mxCell>
      </root>
    </mxGraphModel>
  </diagram>
</mxfile>
